<?xml version="1.0" standalone="no"?>
<!DOCTYPE svg PUBLIC "-//W3C//DTD SVG 20010904//EN"
 "http://www.w3.org/TR/2001/REC-SVG-20010904/DTD/svg10.dtd">
<svg version="1.0" xmlns="http://www.w3.org/2000/svg"
 width="658.000000pt" height="768.000000pt" viewBox="0 0 658.000000 768.000000"
 preserveAspectRatio="xMidYMid meet">

<g transform="translate(0.000000,768.000000) scale(0.100000,-0.100000)"
fill="#000000" stroke="none">
<path d="M2990 7120 c-1031 -97 -1938 -657 -2493 -1537 -182 -290 -330 -640
-407 -968 -66 -279 -84 -448 -84 -775 0 -268 6 -351 40 -560 122 -744 533
-1462 1119 -1954 539 -453 1165 -710 1862 -767 179 -14 528 -6 693 16 419 56
808 185 1165 384 811 454 1387 1209 1605 2103 57 234 90 522 90 787 -1 750
-247 1451 -724 2056 -103 131 -393 419 -526 521 -492 380 -1002 595 -1610 679
-136 19 -588 28 -730 15z m660 -975 c481 -75 911 -292 1264 -635 374 -364 601
-802 683 -1323 22 -141 25 -526 5 -662 -114 -765 -563 -1401 -1242 -1757 -571
-300 -1274 -341 -1895 -111 -111 41 -333 155 -444 228 -501 329 -856 828 -995
1396 -92 380 -85 835 19 1194 238 821 908 1457 1725 1639 100 22 151 30 320
50 80 10 460 -3 560 -19z"/>
</g>
</svg>
