<?xml version="1.0" standalone="no"?>
<!DOCTYPE svg PUBLIC "-//W3C//DTD SVG 20010904//EN"
 "http://www.w3.org/TR/2001/REC-SVG-20010904/DTD/svg10.dtd">
<svg version="1.0" xmlns="http://www.w3.org/2000/svg"
 width="920.000000pt" height="483.000000pt" viewBox="0 0 920.000000 483.000000"
 preserveAspectRatio="xMidYMid meet">

<g transform="translate(0.000000,483.000000) scale(0.100000,-0.100000)"
fill="#000000" stroke="none">
<path d="M3703 4810 c-21 -13 -35 -31 -42 -57 -7 -25 -11 -271 -11 -715 l0
-678 -690 0 c-744 0 -733 1 -761 -51 -14 -27 -14 -81 0 -108 28 -52 17 -51
761 -51 l690 0 0 -735 0 -735 -690 0 c-768 0 -737 3 -766 -67 -19 -45 -5 -94
36 -123 28 -20 42 -20 724 -20 l696 0 0 -677 c0 -445 4 -691 11 -716 11 -42
56 -77 99 -77 43 0 88 35 99 77 7 25 11 271 11 716 l0 677 730 0 730 0 0 -677
c0 -445 4 -691 11 -716 11 -42 56 -77 99 -77 43 0 88 35 99 77 7 25 11 271 11
716 l0 677 693 0 c665 0 693 1 723 19 44 27 60 77 40 124 -29 70 2 67 -766 67
l-690 0 0 735 0 735 693 0 c669 0 693 1 724 20 57 34 61 121 8 168 l-26 22
-700 0 -699 0 0 678 c0 444 -4 690 -11 715 -11 42 -56 77 -99 77 -43 0 -88
-35 -99 -77 -7 -25 -11 -271 -11 -715 l0 -678 -730 0 -730 0 0 678 c0 444 -4
690 -11 715 -11 42 -56 77 -99 77 -14 0 -39 -9 -57 -20z m1627 -2395 l0 -735
-730 0 -730 0 0 735 0 735 730 0 730 0 0 -735z"/>
<path d="M4132 2927 c-27 -16 -49 -46 -52 -72 -7 -60 0 -69 185 -255 l185
-185 -180 -180 c-114 -114 -184 -191 -191 -212 -26 -81 68 -161 144 -122 12 6
102 90 200 187 l177 177 178 -177 c97 -97 187 -181 199 -187 78 -39 165 38
141 124 -5 19 -71 93 -188 210 l-180 180 176 175 c97 96 182 189 189 205 34
77 -39 161 -122 140 -18 -4 -97 -75 -211 -188 l-182 -182 -178 177 c-198 198
-229 218 -290 185z"/>
<path d="M2815 4610 c-115 -25 -198 -73 -279 -161 -201 -216 -185 -543 35
-744 239 -217 613 -165 791 109 100 154 109 357 23 527 -53 104 -177 210 -293
250 -65 23 -214 33 -277 19z m233 -230 c57 -25 121 -87 154 -150 33 -65 33
-205 0 -270 -59 -114 -158 -174 -282 -174 -124 0 -223 60 -282 174 -33 65 -33
205 0 270 81 155 252 218 410 150z"/>
<path d="M5812 4607 c-27 -16 -49 -46 -52 -72 -7 -59 1 -69 185 -254 l185
-187 -176 -174 c-97 -96 -183 -190 -191 -208 -29 -68 25 -142 102 -142 36 0
49 11 227 187 l188 187 178 -176 c97 -97 187 -181 199 -187 83 -42 177 45 140
131 -8 18 -94 112 -191 208 l-176 175 184 185 c116 116 187 195 191 213 16 62
-40 127 -108 127 -40 0 -47 -6 -229 -187 l-188 -188 -178 177 c-198 198 -229
218 -290 185z"/>
<path d="M6150 2924 c-128 -34 -239 -115 -312 -228 -101 -156 -109 -357 -21
-531 35 -69 154 -185 226 -220 244 -118 531 -39 678 188 162 249 78 588 -182
740 -101 59 -273 82 -389 51z m258 -224 c57 -25 121 -87 154 -150 19 -37 23
-60 23 -135 0 -104 -18 -151 -87 -222 -59 -61 -126 -87 -218 -87 -130 -1 -231
66 -285 187 -24 53 -27 69 -23 137 5 88 28 143 86 203 90 94 227 120 350 67z"/>
<path d="M2452 1247 c-44 -25 -67 -82 -51 -126 6 -14 91 -107 190 -206 l179
-180 -180 -180 c-114 -114 -184 -191 -191 -212 -26 -81 68 -161 144 -122 12 6
102 90 200 187 l177 177 178 -177 c97 -97 187 -181 199 -187 76 -39 170 41
144 122 -7 21 -77 98 -191 212 l-180 179 184 186 c117 118 185 194 187 210 7
43 -1 69 -32 100 -24 23 -39 30 -71 30 -40 0 -47 -6 -229 -187 l-189 -187
-189 187 c-171 170 -191 187 -222 187 -19 -1 -44 -6 -57 -13z"/>
<path d="M4470 1244 c-126 -33 -239 -116 -311 -227 -138 -214 -102 -492 87
-668 105 -97 202 -134 354 -134 152 0 249 37 354 134 224 208 229 541 12 756
-76 76 -144 115 -241 140 -73 19 -182 18 -255 -1z m256 -223 c59 -26 122 -87
156 -151 33 -65 33 -205 0 -270 -59 -113 -157 -173 -282 -174 -124 -1 -223 60
-282 174 -33 65 -33 205 0 270 81 154 252 218 408 151z"/>
</g>
</svg>
