<?xml version="1.0" standalone="no"?>
<!DOCTYPE svg PUBLIC "-//W3C//DTD SVG 20010904//EN"
 "http://www.w3.org/TR/2001/REC-SVG-20010904/DTD/svg10.dtd">
<svg version="1.0" xmlns="http://www.w3.org/2000/svg"
 width="564.000000pt" height="517.000000pt" viewBox="0 0 564.000000 517.000000"
 preserveAspectRatio="xMidYMid meet">

<g transform="translate(0.000000,517.000000) scale(0.100000,-0.100000)"
fill="#000000" stroke="none">
<path d="M2796 4857 c-10 -17 -55 -95 -99 -172 -44 -77 -153 -266 -242 -420
-89 -154 -229 -397 -312 -540 -83 -143 -201 -348 -263 -455 -166 -288 -274
-475 -500 -865 -205 -353 -495 -856 -665 -1150 -51 -88 -159 -275 -240 -415
-81 -140 -176 -306 -212 -367 -35 -62 -62 -117 -58 -123 4 -7 853 -10 2621
-10 l2614 0 0 23 c0 13 -4 27 -9 32 -5 6 -44 71 -87 145 -89 154 -291 503
-402 695 -41 72 -108 186 -147 255 -39 69 -155 269 -257 445 -102 176 -196
338 -209 360 -12 22 -59 103 -104 180 -45 77 -93 160 -107 185 -14 25 -83 144
-153 265 -70 121 -160 276 -200 345 -40 69 -114 197 -165 285 -51 88 -143 248
-205 355 -61 107 -143 249 -181 315 -102 174 -301 520 -344 595 -20 35 -41 65
-46 67 -5 2 -17 -12 -28 -30z m149 -1358 c61 -106 147 -255 190 -329 43 -74
136 -235 206 -356 70 -122 160 -278 200 -345 39 -68 113 -196 164 -284 50 -88
118 -205 150 -260 32 -55 66 -113 75 -130 95 -165 340 -588 402 -694 43 -74
78 -138 78 -142 0 -5 -715 -9 -1590 -9 -875 0 -1590 2 -1590 4 0 3 13 26 29
53 16 26 162 278 324 558 162 281 379 656 482 835 334 576 615 1064 714 1237
20 35 40 61 45 60 5 -2 59 -91 121 -198z"/>
</g>
</svg>
